<?xml version="1.0" encoding="UTF-8" standalone="no"?>
<!DOCTYPE svg PUBLIC "-//W3C//DTD SVG 1.1//EN" "http://www.w3.org/Graphics/SVG/1.1/DTD/svg11.dtd">
<svg width="100%" height="100%" viewBox="0 0 1374 217" version="1.1" xmlns="http://www.w3.org/2000/svg" xmlns:xlink="http://www.w3.org/1999/xlink" xml:space="preserve" xmlns:serif="http://www.serif.com/" style="fill-rule:evenodd;clip-rule:evenodd;stroke-linejoin:round;stroke-miterlimit:2;">
    <g transform="matrix(1,0,0,1,-20160.393448,-10072.896347)">
        <g transform="matrix(1.02539,0,0,1,4850.979539,8399.657662)">
            <g id="Lockup-w--mark" serif:id="Lockup w/ mark" transform="matrix(0.61168,0,0,0.61168,14626.355849,918.869715)">
                <g id="Lockup-w--mark1" serif:id="Lockup w/ mark" transform="matrix(1,0,0,1,197.101279,-68.068336)">
                    <g id="Cup" transform="matrix(2.699058,0.333988,-0.333988,2.699058,1973.054395,1083.056211)">
                        <path d="M169.582,87.097C174.623,88.147 183.774,88.11 185.161,96.564C185.528,98.803 183.678,101.417 189.503,101.341C216.911,100.985 210.218,167.762 176.484,163.625C168.078,162.594 170.109,167.812 159.258,174.097C145.181,182.252 100.525,191.87 77.062,165.917C62.192,149.47 54.148,136.306 58.725,101.535C59.988,91.942 59.171,89.949 68.467,87.376C112.398,75.219 161.662,85.452 169.582,87.097ZM187.697,151.734C203.364,136.362 198.696,109.804 188.487,110.247C182.866,110.491 183.91,115.331 183.465,126.498C182.621,147.706 179.256,149.262 178.197,153.466C177.832,154.916 181.334,156.658 187.697,151.734ZM168.344,95.743C152.482,93.749 125.641,85.903 79.619,93.998C79.38,94.04 72.493,95.251 77.611,96.268C85.609,97.857 108.067,104.913 148.453,101.047C158.16,100.118 157.967,99.593 167.502,97.503C168.299,97.329 168.299,97.328 168.329,97.266C168.702,96.485 167.993,96.477 168.344,95.743ZM81.586,106.037C69.442,103.235 69.464,103.012 68.416,103.259C67.464,103.484 67.018,107.192 66.974,107.552C63.089,139.851 77.926,155.183 88.726,164.205C107.447,179.846 170.953,181.693 174.191,132.472C174.337,130.246 176.008,104.842 176.013,104.647C176.151,99.532 157.427,120.451 81.586,106.037Z" style="fill:white;"/>
                    </g>
                    <g transform="matrix(1.496933,0,0,1.496933,-751.728276,-432.999407)">
                        <g transform="matrix(258.268575,0,0,258.268575,1894.657532,1343)">
                        </g>
                        <text x="695px" y="1343px" style="font-family:'TWKLausanne-550', 'TWK Lausanne';font-weight:550;font-size:258.269px;fill:white;">e<tspan x="828.267px 939.58px 1083.952px 1159.109px 1292.375px 1403.689px 1515.519px 1653.435px 1696.049px 1829.832px " y="1343px 1343px 1343px 1343px 1343px 1343px 1343px 1343px 1343px 1343px ">spresso ui</tspan></text>
                    </g>
                </g>
            </g>
        </g>
    </g>
</svg>
